# xmcd
#
# Track frame offsets: 
#        150
#        25890
#        53265
#        76955
#        113869
#        139056
#        156843
#        176726
#        200036
#        231288
#        251014
#
# Disc length: 3585 seconds
#
# Revision: 0
# Processed by: cddbd v1.5.2PL0 Copyright (c) Steve Scherf et al.
# Submitted via: ExactAudioCopy v1.0b4
#
DISCID=8f0dff0b
DTITLE=Little Freddie King - You Make My Night 
DYEAR=2017
DGENRE=Blues
TTITLE0=Hobo Blues
TTITLE1=Can't Do Nothin' Babe
TTITLE2=Tough Frog To Swallow
TTITLE3=Bus Station Blues
TTITLE4=Baby Please Don't Go
TTITLE5=Chicken Dance
TTITLE6=Big BossMan
TTITLE7=Wang Dang Doodle
TTITLE8=Standin' At Yo Door
TTITLE9=Josephine
TTITLE10=Sing Sang Sung
EXTD=
EXTT0=
EXTT1=
EXTT2=
EXTT3=
EXTT4=
EXTT5=
EXTT6=
EXTT7=
EXTT8=
EXTT9=
EXTT10=
PLAYORDER=
